<?xml version="1.0" encoding="UTF-8" standalone="no"?>
<!-- Do not edit this file with editors other than draw.io -->

<svg
   version="1.1"
   width="48"
   height="50"
   viewBox="0 0 48 50"
   content="&lt;mxfile host=&quot;app.diagrams.net&quot; scale=&quot;1&quot; border=&quot;0&quot;&gt;&#10;  &lt;diagram name=&quot;Page-1&quot; id=&quot;PYgecRdNFt7cX_0pTepG&quot;&gt;&#10;    &lt;mxGraphModel dx=&quot;1406&quot; dy=&quot;792&quot; grid=&quot;1&quot; gridSize=&quot;10&quot; guides=&quot;1&quot; tooltips=&quot;1&quot; connect=&quot;1&quot; arrows=&quot;1&quot; fold=&quot;1&quot; page=&quot;1&quot; pageScale=&quot;1&quot; pageWidth=&quot;850&quot; pageHeight=&quot;1100&quot; math=&quot;0&quot; shadow=&quot;0&quot;&gt;&#10;      &lt;root&gt;&#10;        &lt;mxCell id=&quot;0&quot; /&gt;&#10;        &lt;mxCell id=&quot;1&quot; parent=&quot;0&quot; /&gt;&#10;        &lt;mxCell id=&quot;0HEQK1-UVuvoOE0Vj3_u-12&quot; parent=&quot;1&quot; style=&quot;swimlane;container=1;shape=mxgraph.bootstrap.rrect;rSize=5;strokeColor=#999999;fillColor=#ffffff;fontStyle=0;childLayout=stackLayout;horizontal=1;startSize=0;horizontalStack=0;resizeParent=1;resizeParentMax=0;resizeLast=0;collapsible=0;marginBottom=0;whiteSpace=wrap;html=1;&quot; value=&quot;&quot; vertex=&quot;1&quot;&gt;&#10;          &lt;mxGeometry height=&quot;10&quot; width=&quot;170&quot; x=&quot;640&quot; y=&quot;83&quot; as=&quot;geometry&quot; /&gt;&#10;        &lt;/mxCell&gt;&#10;        &lt;mxCell id=&quot;rmsLEE-EpTMMP2jjnqa_-6&quot; parent=&quot;1&quot; style=&quot;image;sketch=0;aspect=fixed;html=1;points=[];align=center;fontSize=12;image=img/lib/mscae/Event_Hubs.svg;&quot; value=&quot;&quot; vertex=&quot;1&quot;&gt;&#10;          &lt;mxGeometry height=&quot;50&quot; width=&quot;48&quot; x=&quot;200&quot; y=&quot;500&quot; as=&quot;geometry&quot; /&gt;&#10;        &lt;/mxCell&gt;&#10;      &lt;/root&gt;&#10;    &lt;/mxGraphModel&gt;&#10;  &lt;/diagram&gt;&#10;&lt;/mxfile&gt;&#10;"
   id="svg14"
   sodipodi:docname="CloudIcon-EventHub.svg"
   inkscape:version="1.4.3 (0d15f75, 2025-12-25)"
   xmlns:inkscape="http://www.inkscape.org/namespaces/inkscape"
   xmlns:sodipodi="http://sodipodi.sourceforge.net/DTD/sodipodi-0.dtd"
   xmlns:xlink="http://www.w3.org/1999/xlink"
   xmlns="http://www.w3.org/2000/svg"
   xmlns:svg="http://www.w3.org/2000/svg">
  <sodipodi:namedview
     id="namedview14"
     pagecolor="#ffffff"
     bordercolor="#000000"
     borderopacity="0.25"
     inkscape:showpageshadow="2"
     inkscape:pageopacity="0.0"
     inkscape:pagecheckerboard="0"
     inkscape:deskcolor="#d1d1d1"
     inkscape:zoom="4"
     inkscape:cx="142.375"
     inkscape:cy="-34.125"
     inkscape:window-width="2400"
     inkscape:window-height="1321"
     inkscape:window-x="2391"
     inkscape:window-y="-9"
     inkscape:window-maximized="1"
     inkscape:current-layer="svg14" />
  <defs
     id="defs1">
    <defs
       id="defs8">
      <path
         id="B"
         d="m -145,250.5 a 0.47,0.47 0 0 1 -0.5,0.5 h -3.9 a 0.47,0.47 0 0 1 -0.5,-0.5 v -2.9 a 0.47,0.47 0 0 1 0.5,-0.5 h 3.9 a 0.47,0.47 0 0 1 0.5,0.5 z" />
      <path
         id="C"
         d="m -152,247.5 a 0.47,0.47 0 0 1 -0.5,0.5 h -4 a 0.47,0.47 0 0 1 -0.5,-0.5 v -3 a 0.47,0.47 0 0 1 0.5,-0.5 h 3.9 c 0.4,0 0.6,0.2 0.6,0.5 z" />
    </defs>
  </defs>
  <g
     id="g14"
     transform="translate(0.5,-417)">
    <g
       fill="#b8d432"
       id="g6"
       transform="matrix(1.6551724,0,0,1.6551724,269.7931,24.896552)"
       style="font-family:initial">
      <use
         xlink:href="#B"
         id="use3" />
      <use
         xlink:href="#B"
         x="7"
         y="3"
         id="use4" />
      <use
         xlink:href="#B"
         y="6"
         id="use5" />
      <use
         xlink:href="#C"
         id="use6" />
    </g>
    <path
       d="M 47.172412,417.17241 H 0.827585 A 0.77793103,0.77793103 0 0 0 -1.2e-6,418 v 9.93103 a 0.77793103,0.77793103 0 0 0 0.8275862,0.82759 h 4.9655172 a 0.77793103,0.77793103 0 0 0 0.8275862,-0.82759 V 423.7931 H 41.379309 v 4.13793 c 0,0.49655 0.331034,0.82759 0.993103,0.82759 h 4.8 a 0.77793103,0.77793103 0 0 0 0.827586,-0.82759 V 418 a 0.77793103,0.77793103 0 0 0 -0.827586,-0.82759 z m 0,38.23448 h -4.8 a 0.77793103,0.77793103 0 0 0 -0.827586,0.82759 v 3.97241 H 6.6206884 v -4.13793 c 0,-0.49655 -0.3310345,-0.82758 -0.9931034,-0.82758 h -4.8 c -0.49655172,0 -0.8275862,0.33103 -0.8275862,0.9931 V 466 a 0.77793103,0.77793103 0 0 0 0.8275862,0.82758 H 47.172412 A 0.77793103,0.77793103 0 0 0 47.999998,466 v -9.76552 a 0.77793103,0.77793103 0 0 0 -0.827586,-0.82759 z"
       fill="#0072c6"
       id="path6"
       style="font-family:initial;fill:#4a69ae;fill-opacity:1;stroke-width:1.65517" />
    <g
       fill="#b8d432"
       id="g8"
       transform="matrix(1.6551724,0,0,1.6551724,269.7931,24.896552)"
       style="font-family:initial">
      <use
         xlink:href="#C"
         y="6"
         id="use7" />
      <use
         xlink:href="#C"
         y="12"
         id="use8" />
    </g>
  </g>
</svg>
